<?xml version="1.0" encoding="utf-8"?>
<!-- Generator: Adobe Illustrator 15.1.0, SVG Export Plug-In . SVG Version: 6.00 Build 0)  -->
<!DOCTYPE svg PUBLIC "-//W3C//DTD SVG 1.1//EN" "http://www.w3.org/Graphics/SVG/1.1/DTD/svg11.dtd">
<svg version="1.1" id="繝ｬ繧､繝､繝ｼ_1" xmlns="http://www.w3.org/2000/svg" xmlns:xlink="http://www.w3.org/1999/xlink" x="0px"
	 y="0px" width="1190.552px" height="841.89px" viewBox="0 0 1190.552 841.89" enable-background="new 0 0 1190.552 841.89"
	 xml:space="preserve">
<g>
	<path d="M258.521,322.241h-21.09c-0.273,0.478-0.956,0.614-1.707,0.546c-1.501,2.867-3.276,5.733-5.187,8.532l1.911,0.546
		c-0.137,0.409-0.546,0.818-1.434,0.887v43.478h-4.709v-39.246c-7.03,8.736-16.039,16.927-26.072,22.797
		c-0.683-1.092-2.116-2.866-3.071-3.822c14.128-7.78,26.414-20.885,33.375-33.717h-31.533v-4.573h59.516V322.241z M256.679,358.961
		c-4.982-4.982-15.425-12.49-23.684-17.609l3.276-3.139c8.19,4.777,18.701,12.08,23.888,16.994L256.679,358.961z"/>
	<path d="M278.722,336.643c0,5.324-0.136,10.647-0.887,15.835c1.911,2.389,6.825,9.486,7.985,11.262l-3.139,3.207
		c-1.161-2.184-3.618-6.211-5.733-9.418c-1.433,6.757-4.164,13.104-8.941,18.769c-0.683-0.955-2.116-2.389-3.072-3.003
		c8.736-10.511,9.692-23.752,9.692-36.651v-23.889l5.46,0.342c-0.068,0.409-0.478,0.751-1.365,0.887V336.643z M265.003,343.536
		c2.594-3.686,3.754-10.442,3.891-16.653l3.208,0.478c-0.136,6.552-1.16,13.855-4.163,18.087L265.003,343.536z M288.277,325.04
		c-0.137,0.409-0.614,0.614-1.365,0.614c-1.229,4.026-3.549,10.169-5.392,13.923l-2.662-1.229
		c1.706-3.958,3.822-10.511,4.914-15.016L288.277,325.04z M294.83,360.872c-1.638,5.597-4.164,11.671-8.668,15.357l-3.413-2.321
		c4.232-3.275,7.03-9.009,8.463-14.265L294.83,360.872z M328.41,331.66h-9.624c1.638,9.965,4.982,19.247,10.511,23.479
		c-0.956,0.819-2.389,2.321-3.003,3.413c-4.368-3.754-7.303-10.17-9.214-17.678c-1.638,6.348-5.119,12.422-12.354,17.541
		c-0.614-0.887-1.911-2.32-2.867-2.935c9.624-6.825,12.013-15.425,12.49-23.82h-7.712v-0.546
		c-3.208,13.241-9.214,22.387-16.995,27.438c-0.546-1.023-1.638-2.389-2.593-3.208c3.89-2.32,7.371-6.006,10.238-10.853
		c-1.707-1.706-4.505-3.821-6.894-5.255l2.047-2.457c2.184,1.229,4.778,3.071,6.484,4.572c0.888-1.843,1.707-3.754,2.389-5.801
		c-1.774-1.434-4.573-3.14-6.894-4.3l1.706-2.799c2.116,0.956,4.505,2.253,6.279,3.549c0.683-2.524,1.297-5.187,1.707-7.985h-7.849
		c-2.184,6.621-5.187,12.627-8.736,16.858c-0.683-0.751-2.116-1.911-3.003-2.525c4.914-5.597,8.668-15.493,10.715-25.73l5.051,1.16
		c-0.136,0.546-0.614,0.818-1.433,0.818c-0.41,1.911-0.887,3.822-1.434,5.665h8.19l0.751-0.137l2.389,0.751
		c-0.068,0.41-0.273,0.614-0.41,0.819c-0.273,2.048-0.614,4.095-0.956,6.006h7.099v-14.879l5.255,0.342
		c-0.068,0.478-0.41,0.818-1.297,0.887v13.65h9.965V331.66z M300.221,375.205c0.068-3.549-0.614-9.077-1.57-13.377l3.754-0.546
		c1.161,4.231,1.843,9.76,1.843,13.309L300.221,375.205z M312.438,375.342c-0.546-3.686-2.457-9.214-4.504-13.445l3.617-1.093
		c2.184,4.164,4.164,9.761,4.846,13.378L312.438,375.342z M325.475,376.297c-1.365-4.026-4.846-10.511-8.122-15.288l3.618-1.434
		c3.413,4.71,6.962,11.058,8.395,15.084L325.475,376.297z M323.359,314.393c2.048,3.208,4.095,7.371,4.914,10.102l-3.344,1.433
		c-0.75-2.866-2.73-7.098-4.641-10.306L323.359,314.393z"/>
	<path d="M387.719,369.268c-6.006,1.092-13.992,1.569-20.954,1.569c-5.597,0-10.511-0.341-13.173-0.887
		c-8.259-1.843-11.808-7.03-11.808-13.036c0-5.119,2.867-10.443,6.962-14.538l3.958,2.048c-3.822,3.89-6.006,8.326-6.006,12.08
		c0,4.027,2.662,7.576,8.532,8.941c2.32,0.478,6.279,0.751,10.92,0.751c6.621,0,14.674-0.546,21.227-1.843L387.719,369.268z
		 M357.073,334.868c3.549-2.799,8.395-6.074,12.081-7.917v-0.068c-5.187,0.614-17.063,0.818-24.639,0.818
		c0-1.297,0-3.549-0.068-4.777h3.686c8.736,0,26.618-0.137,35.218-2.184l0.546,4.982c-2.252,0.341-3.891,0.682-7.167,2.047
		c-3.822,1.57-10.443,5.256-15.767,9.556L357.073,334.868z M387.65,344.56c-1.979-3.003-6.211-7.098-9.146-9.282l2.252-2.115
		c3.276,2.389,7.235,6.347,9.351,9.214L387.65,344.56z M394.817,338.076c-1.911-2.73-5.938-6.825-9.146-9.215l2.252-2.184
		c3.344,2.525,7.303,6.416,9.351,9.282L394.817,338.076z"/>
	<path d="M458.63,332.479c-0.205,0.751-0.956,1.229-1.979,1.229c-0.75,4.709-1.843,9.691-3.003,13.923
		c3.686,1.57,7.576,3.345,11.466,5.324l-2.184,4.573c-3.686-1.843-7.234-3.618-10.715-5.119
		c-3.276,9.828-7.986,16.995-15.221,21.772c-0.955-0.956-2.662-2.116-3.89-2.867c7.167-4.709,11.603-11.125,14.743-20.885
		c-6.894-2.73-13.173-4.642-18.224-5.051c-4.709,17.199-8.941,21.704-17.131,21.704s-9.76-6.552-9.76-10.716
		c0-10.579,10.989-15.493,23.206-15.562c1.433-5.46,2.73-12.148,3.686-19.247c-3.208,0.273-14.128,1.024-19.315,1.365
		c-0.273,0.478-0.819,0.819-1.433,0.955l-0.614-5.528c5.87-0.204,18.564-1.023,22.66-1.433c0.751-0.068,1.024-0.41,1.501-0.751
		l4.232,2.525c-0.341,0.546-0.888,0.818-1.707,1.092c-1.092,7.576-2.73,15.425-4.231,21.295c5.255,0.409,11.535,2.252,18.36,4.846
		c1.16-4.095,2.184-9.351,2.935-14.879L458.63,332.479z M424.845,345.105c-9.828,0.137-17.677,4.027-17.677,11.262
		c0,3.822,1.843,6.416,5.051,6.416C417.201,362.783,420.477,361.077,424.845,345.105z"/>
	<path d="M517.819,320.503c-5.668,4.732-10.296,13.417-10.296,23.921c0,10.765,4.784,19.345,10.296,23.921v0.26h-3.12
		c-5.252-4.731-9.932-13.468-9.932-24.181s4.68-19.449,9.932-24.181h3.12V320.503z"/>
	<path d="M547.25,350.404v13.313h21.009v3.12h-45.138v-3.12h20.488v-13.313h-18.148v-3.12h18.148v-7.28h-11.18v-2.965
		c-2.808,2.185-5.824,4.213-8.84,5.929c-0.52-0.78-1.456-2.028-2.184-2.756c9.1-4.837,18.044-13.157,22.153-20.177l5.097,0.312
		c-0.104,0.416-0.521,0.677-1.041,0.78c5.045,6.969,14.405,14.509,22.465,18.408c-0.832,0.885-1.716,2.028-2.34,3.068
		c-8.112-4.472-17.42-12.064-22.309-18.929c-2.756,4.212-7.385,8.944-12.74,13.157h26.156v3.172H547.25v7.28h18.564v3.12H547.25z
		 M534.978,362.832c-0.677-2.651-2.756-6.76-4.889-9.828l2.86-1.092c2.184,2.912,4.368,6.969,5.096,9.62L534.978,362.832z
		 M561.707,353.473c-0.155,0.312-0.571,0.468-1.144,0.416c-1.508,2.703-4.004,6.552-5.98,9.048l-2.6-1.3
		c1.924-2.601,4.472-6.864,5.824-9.881L561.707,353.473z"/>
	<path d="M593.842,349.156l-7.332,1.611v17.837h-3.433v-17.057c-2.86,0.624-5.46,1.196-7.54,1.612
		c-0.053,0.364-0.313,0.676-0.676,0.78l-1.353-4.005c2.601-0.416,5.929-1.039,9.568-1.768v-13.416h-5.148
		c-0.52,3.119-1.144,5.979-1.924,8.164c-0.676-0.469-1.82-1.092-2.601-1.456c1.457-4.212,2.236-11.493,2.757-18.305l4.056,0.884
		c-0.104,0.364-0.468,0.52-1.092,0.572c-0.156,2.184-0.416,4.523-0.676,6.76h4.628v-11.024l4.42,0.261
		c-0.052,0.363-0.312,0.623-0.987,0.728v10.036h6.604v3.381h-6.604v12.792l7.02-1.404L593.842,349.156z M618.646,330.539
		l1.872,0.156c0,0.313-0.052,0.832-0.104,1.196c-0.987,24.337-1.871,32.345-3.848,34.789c-0.988,1.404-2.08,1.976-5.512,1.976
		c-1.145,0-2.444-0.052-3.744-0.104c-0.053-1.04-0.416-2.548-0.988-3.484c2.34,0.156,4.42,0.208,5.355,0.208
		c0.885,0,1.353-0.155,1.873-0.884c1.508-1.768,2.548-9.36,3.38-30.525h-4.057c-1.508,12.585-5.096,27.405-10.66,34.789
		c-0.728-0.571-2.028-1.352-3.017-1.716c5.721-6.864,9.205-20.801,10.765-33.073h-4.472c-1.977,10.66-5.98,23.297-11.18,29.745
		c-0.78-0.624-2.08-1.3-3.12-1.716c5.252-5.928,9.255-17.629,11.232-28.029h-4.16c-1.352,4.42-3.068,8.425-5.095,11.44
		c-0.572-0.571-1.873-1.456-2.652-1.976c3.588-5.148,6.084-14.145,7.435-23.193l4.316,0.937c-0.104,0.364-0.468,0.571-1.144,0.571
		c-0.521,3.017-1.145,6.033-1.925,8.945h18.617L618.646,330.539z"/>
	<path d="M654.994,344.424c0,2.964-2.393,5.356-5.356,5.356s-5.356-2.393-5.356-5.356s2.393-5.356,5.356-5.356
		C652.706,339.067,654.994,341.563,654.994,344.424z"/>
	<path d="M721.19,334.127c-0.052,0.209-0.208,0.469-0.416,0.625c-0.728,15.028-2.185,24.336-4.212,28.028
		c-2.08,3.744-5.305,3.796-6.813,3.796c-1.977,0-5.668-0.468-9.256-1.248c0.052-1.039-0.053-2.6-0.156-3.64
		c3.9,0.832,7.904,1.248,9.1,1.248c1.873,0,2.912-0.468,3.953-2.444c1.611-3.12,2.859-11.805,3.38-23.505h-16.589
		c-2.652,12.429-7.801,22.621-17.16,29.745c-0.677-0.676-2.028-1.716-2.965-2.34c8.944-6.708,13.677-15.549,16.225-27.457h-14.353
		v-3.484h15.028c0.625-3.64,0.988-7.02,1.248-11.389l5.148,0.469c-0.052,0.52-0.572,0.832-1.3,0.936
		c-0.312,3.797-0.624,6.709-1.196,10.037h16.9l0.78-0.313L721.19,334.127z M712.402,321.595c2.34,2.08,5.148,5.616,6.552,8.009
		l-2.08,1.456c-1.3-2.185-4.264-5.98-6.448-8.061L712.402,321.595z M720.515,319.307c2.288,2.185,5.2,5.616,6.604,7.957
		l-2.133,1.455c-1.3-2.184-4.264-5.876-6.396-7.956L720.515,319.307z"/>
	<path d="M773.086,338.651c-0.104,0.208-0.363,0.416-0.676,0.521c-4.264,15.704-12.948,23.349-28.497,27.665
		c-0.468-0.937-1.456-2.236-2.184-3.017c14.145-3.536,22.933-10.816,26.209-22.881h-34.426v-3.536h35.985l0.521-0.312
		L773.086,338.651z M768.198,327.523h-29.642v-3.433h29.642V327.523z"/>
	<path d="M819.678,327.107c-0.104,0.26-0.363,0.468-0.676,0.572c-2.808,6.604-6.136,12.324-10.4,17.889
		c5.668,4.523,14.197,12.271,19.033,17.628l-3.172,2.757c-4.576-5.305-12.949-13.209-18.253-17.473
		c-4.576,5.563-12.48,13.156-20.021,17.473c-0.572-0.78-1.82-2.08-2.705-2.809c14.405-7.904,25.793-22.673,30.474-33.957h-25.533
		v-3.536h27.562l0.676-0.261L819.678,327.107z"/>
	<path d="M862.994,344.424c0,2.964-2.393,5.356-5.356,5.356s-5.356-2.393-5.356-5.356s2.393-5.356,5.356-5.356
		C860.706,339.067,862.994,341.563,862.994,344.424z"/>
	<path d="M897.729,344.788c1.819,1.716,6.604,6.916,7.748,8.269l-2.185,2.859c-1.039-1.664-3.535-4.888-5.563-7.332v19.969h-3.328
		v-20.801c-2.028,5.305-4.732,10.66-7.385,13.885c-0.364-1.04-1.248-2.496-1.819-3.328c3.172-3.692,6.656-10.557,8.58-16.537h-7.904
		v-3.275h8.528v-18.201l4.368,0.313c-0.053,0.363-0.364,0.571-1.04,0.676v17.213h7.748v3.275h-7.748V344.788z M888.785,324.039
		c1.611,3.536,2.859,8.164,3.12,11.129l-2.86,0.779c-0.208-3.016-1.404-7.696-2.912-11.232L888.785,324.039z M906.777,324.819
		c-0.104,0.312-0.468,0.52-1.092,0.52c-0.936,3.173-2.704,8.009-4.108,10.921c-0.571-0.208-1.924-0.729-2.444-0.885
		c1.353-3.067,2.965-8.216,3.797-11.752L906.777,324.819z M930.022,363.664h3.796v3.328h-30.941v-3.328h5.617v-40.873h21.528
		V363.664z M926.538,326.119h-14.664v10.297h14.664V326.119z M926.538,349.936V339.64h-14.664v10.296H926.538z M911.874,353.16
		v10.504h14.664V353.16H911.874z"/>
	<path d="M984.883,339.172H964.55c3.38,12.428,10.089,21.996,21.165,26.104c-0.885,0.78-2.028,2.236-2.601,3.276
		c-10.868-4.473-17.473-13.677-21.32-26.209c-2.393,10.297-8.061,20.488-21.478,26.261c-0.52-0.936-1.611-2.184-2.496-2.964
		c13.729-5.564,18.877-15.965,20.854-26.469h-20.073v-3.588h20.646c0.676-5.408,0.623-10.713,0.676-15.237l4.888,0.261
		c-0.052,0.468-0.468,0.728-1.144,0.884c-0.053,4.108-0.104,8.996-0.729,14.093h21.945V339.172z"/>
	<path d="M989.457,368.345c5.668-4.732,10.296-13.417,10.296-23.921c0-10.765-4.784-19.345-10.296-23.921v-0.26h3.12
		c5.304,4.731,9.933,13.468,9.933,24.181s-4.629,19.449-9.933,24.181h-3.12V368.345z"/>
</g>
</svg>
