<?xml version="1.0" encoding="utf-8"?>
<!-- Generator: Adobe Illustrator 15.1.0, SVG Export Plug-In . SVG Version: 6.00 Build 0)  -->
<!DOCTYPE svg PUBLIC "-//W3C//DTD SVG 1.1//EN" "http://www.w3.org/Graphics/SVG/1.1/DTD/svg11.dtd">
<svg version="1.1" id="繝ｬ繧､繝､繝ｼ_1" xmlns="http://www.w3.org/2000/svg" xmlns:xlink="http://www.w3.org/1999/xlink" x="0px"
	 y="0px" width="1190.552px" height="841.89px" viewBox="0 0 1190.552 841.89" enable-background="new 0 0 1190.552 841.89"
	 xml:space="preserve">
<g>
	<path d="M312.862,320.215v1.632h-3.048v16.514c0,1.224-0.312,1.8-1.2,2.088c-0.936,0.288-2.616,0.288-4.992,0.288
		c-0.12-0.48-0.456-1.272-0.696-1.752c1.104,0.048,2.184,0.072,3.048,0.072c2.088,0,2.184,0,2.184-0.72v-16.489h-16.945v-1.632
		H312.862z M303.621,334.593H295.1v1.992h-1.584v-10.993h10.105V334.593z M302.013,327.128H295.1v5.929h6.913V327.128z"/>
	<path d="M319.556,326.888c0,1.872-0.048,3.744-0.312,5.568c0.672,0.84,2.4,3.336,2.809,3.96l-1.104,1.128
		c-0.408-0.768-1.272-2.184-2.016-3.312c-0.504,2.376-1.464,4.608-3.144,6.601c-0.24-0.336-0.744-0.84-1.08-1.056
		c3.072-3.696,3.408-8.353,3.408-12.889v-8.401l1.92,0.12c-0.024,0.144-0.168,0.264-0.48,0.312V326.888z M314.732,329.313
		c0.912-1.296,1.32-3.672,1.368-5.857l1.128,0.168c-0.048,2.304-0.408,4.872-1.464,6.36L314.732,329.313z M322.917,322.808
		c-0.048,0.144-0.216,0.216-0.48,0.216c-0.432,1.416-1.248,3.576-1.896,4.896l-0.936-0.432c0.6-1.392,1.344-3.696,1.728-5.281
		L322.917,322.808z M325.221,335.409c-0.576,1.968-1.464,4.104-3.048,5.4l-1.2-0.816c1.488-1.152,2.473-3.168,2.977-5.017
		L325.221,335.409z M337.03,325.136h-3.384c0.576,3.504,1.752,6.769,3.696,8.257c-0.336,0.288-0.84,0.816-1.056,1.2
		c-1.536-1.32-2.568-3.576-3.24-6.217c-0.576,2.232-1.8,4.369-4.344,6.169c-0.216-0.312-0.672-0.816-1.008-1.032
		c3.384-2.4,4.225-5.424,4.393-8.377h-2.712v-0.192c-1.128,4.656-3.24,7.873-5.977,9.649c-0.192-0.36-0.576-0.84-0.912-1.128
		c1.368-0.816,2.592-2.112,3.601-3.816c-0.6-0.6-1.584-1.344-2.424-1.848l0.72-0.864c0.768,0.432,1.68,1.08,2.28,1.608
		c0.312-0.648,0.6-1.32,0.84-2.041c-0.624-0.504-1.608-1.104-2.424-1.512l0.6-0.984c0.744,0.336,1.584,0.792,2.208,1.248
		c0.24-0.888,0.456-1.824,0.6-2.808h-2.76c-0.768,2.328-1.824,4.44-3.072,5.928c-0.24-0.264-0.744-0.672-1.056-0.888
		c1.728-1.968,3.048-5.449,3.768-9.049l1.776,0.408c-0.048,0.192-0.216,0.288-0.504,0.288c-0.144,0.672-0.312,1.344-0.504,1.992
		h2.88l0.264-0.048l0.84,0.264c-0.024,0.144-0.096,0.216-0.144,0.288c-0.096,0.72-0.216,1.44-0.336,2.112h2.496v-5.232l1.848,0.12
		c-0.024,0.168-0.144,0.288-0.456,0.312v4.8h3.504V325.136z M327.117,340.449c0.024-1.248-0.216-3.192-0.552-4.705l1.32-0.192
		c0.408,1.488,0.648,3.433,0.648,4.681L327.117,340.449z M331.413,340.497c-0.192-1.296-0.864-3.24-1.584-4.728l1.272-0.384
		c0.768,1.464,1.464,3.432,1.705,4.705L331.413,340.497z M335.998,340.833c-0.48-1.417-1.704-3.696-2.856-5.376l1.272-0.504
		c1.2,1.656,2.448,3.889,2.952,5.305L335.998,340.833z M335.253,319.063c0.72,1.128,1.44,2.592,1.729,3.552l-1.176,0.504
		c-0.264-1.008-0.96-2.496-1.632-3.624L335.253,319.063z"/>
	<path d="M357.886,338.361c-2.112,0.384-4.921,0.552-7.369,0.552c-1.968,0-3.697-0.12-4.633-0.312
		c-2.904-0.648-4.152-2.472-4.152-4.584c0-1.8,1.008-3.672,2.448-5.112l1.392,0.72c-1.344,1.368-2.112,2.928-2.112,4.248
		c0,1.417,0.936,2.665,3,3.145c0.816,0.168,2.208,0.264,3.84,0.264c2.328,0,5.161-0.192,7.465-0.648L357.886,338.361z
		 M347.108,326.264c1.248-0.984,2.953-2.136,4.249-2.784v-0.024c-1.824,0.216-6,0.288-8.665,0.288c0-0.456,0-1.248-0.024-1.68h1.296
		c3.072,0,9.361-0.048,12.385-0.768l0.192,1.752c-0.792,0.12-1.368,0.24-2.521,0.72c-1.344,0.552-3.672,1.849-5.544,3.36
		L347.108,326.264z M357.861,329.672c-0.696-1.056-2.184-2.496-3.216-3.264l0.792-0.744c1.152,0.84,2.544,2.232,3.288,3.24
		L357.861,329.672z M360.382,327.392c-0.672-0.96-2.088-2.4-3.216-3.24l0.792-0.768c1.176,0.888,2.568,2.256,3.288,3.264
		L360.382,327.392z"/>
	<path d="M382.822,325.424c-0.072,0.264-0.336,0.432-0.696,0.432c-0.264,1.656-0.648,3.408-1.056,4.896
		c1.296,0.552,2.665,1.176,4.032,1.872l-0.768,1.608c-1.296-0.648-2.544-1.272-3.768-1.8c-1.152,3.456-2.808,5.977-5.353,7.657
		c-0.336-0.336-0.936-0.744-1.368-1.008c2.521-1.656,4.081-3.912,5.185-7.345c-2.424-0.96-4.632-1.632-6.409-1.776
		c-1.656,6.048-3.144,7.632-6.024,7.632s-3.432-2.304-3.432-3.768c0-3.72,3.864-5.449,8.161-5.473
		c0.504-1.92,0.96-4.272,1.296-6.769c-1.128,0.096-4.968,0.36-6.792,0.48c-0.096,0.168-0.288,0.288-0.504,0.336l-0.216-1.944
		c2.064-0.072,6.529-0.36,7.969-0.504c0.264-0.024,0.36-0.144,0.528-0.264l1.488,0.888c-0.12,0.192-0.312,0.288-0.6,0.384
		c-0.384,2.665-0.96,5.425-1.488,7.489c1.848,0.144,4.056,0.792,6.457,1.704c0.408-1.44,0.768-3.288,1.032-5.232L382.822,325.424z
		 M370.94,329.864c-3.456,0.048-6.216,1.416-6.216,3.96c0,1.344,0.648,2.256,1.776,2.256
		C368.252,336.081,369.404,335.481,370.94,329.864z"/>
</g>
</svg>
