<?xml version="1.0" encoding="utf-8"?>
<!-- Generator: Adobe Illustrator 15.1.0, SVG Export Plug-In . SVG Version: 6.00 Build 0)  -->
<!DOCTYPE svg PUBLIC "-//W3C//DTD SVG 1.1//EN" "http://www.w3.org/Graphics/SVG/1.1/DTD/svg11.dtd">
<svg version="1.1" id="繝ｬ繧､繝､繝ｼ_1" xmlns="http://www.w3.org/2000/svg" xmlns:xlink="http://www.w3.org/1999/xlink" x="0px"
	 y="0px" width="1190.552px" height="841.89px" viewBox="0 0 1190.552 841.89" enable-background="new 0 0 1190.552 841.89"
	 xml:space="preserve">
<g>
	<path fill="#FFFFFF" d="M342.395,225.976h24.329l0.229-0.115l2.602,1.989c-0.115,0.153-0.229,0.268-0.459,0.344
		c-3.099,14.383-9.755,21.881-21.46,26.319c-0.421-0.689-1.186-1.684-1.722-2.257c11.132-4.093,17.559-11.208,20.045-23.641h-23.564
		V225.976z M371.544,219.128c2.295,0,4.169,1.874,4.169,4.208c0,2.295-1.875,4.17-4.169,4.17c-2.333,0-4.208-1.875-4.208-4.17
		C367.336,220.926,369.287,219.128,371.544,219.128z M374.452,223.336c0-1.645-1.301-2.945-2.907-2.945
		c-1.607,0-2.946,1.301-2.946,2.945c0,1.607,1.339,2.946,2.946,2.946C373.228,226.282,374.452,224.866,374.452,223.336z"/>
	<path fill="#FFFFFF" d="M409.226,233.779c-0.076,0.153-0.268,0.306-0.497,0.383c-3.137,11.552-9.525,17.176-20.963,20.351
		c-0.345-0.689-1.071-1.645-1.607-2.219c10.405-2.602,16.87-7.957,19.28-16.832h-25.324v-2.601h26.472l0.382-0.229L409.226,233.779z
		 M405.63,225.593h-21.805v-2.525h21.805V225.593z"/>
	<path fill="#FFFFFF" d="M443.503,225.287c-0.077,0.191-0.268,0.344-0.498,0.421c-2.065,4.858-4.514,9.066-7.651,13.159
		c4.17,3.328,10.443,9.028,14.001,12.968l-2.333,2.028c-3.366-3.902-9.525-9.717-13.427-12.854
		c-3.367,4.093-9.181,9.678-14.728,12.854c-0.42-0.574-1.339-1.53-1.989-2.066c10.597-5.814,18.974-16.679,22.417-24.979h-18.783
		v-2.602h20.274l0.498-0.191L443.503,225.287z"/>
	<path fill="#FFFFFF" d="M487.229,237.796h-13.351c-0.842,7.345-3.328,12.854-10.75,17.062c-0.574-0.612-1.492-1.339-2.142-1.836
		c6.886-3.749,9.372-8.492,10.175-15.225h-15.607v-2.524h15.799c0.191-2.525,0.191-5.126,0.229-8.187
		c-3.902,0.88-8.951,1.722-13.159,2.181c-0.191-0.727-0.459-1.492-0.803-2.219c13.427-1.607,21.346-4.246,23.717-5.279l2.027,2.257
		c-0.153,0.076-0.306,0.115-0.497,0.115c-0.153,0-0.268,0-0.421-0.039c-2.142,0.803-5.547,1.798-8.569,2.525l1.262,0.115
		c-0.038,0.344-0.306,0.574-0.803,0.65c-0.038,2.869-0.077,5.47-0.229,7.88h13.121V237.796z"/>
	<path fill="#FFFFFF" d="M499.204,231.599c1.147,2.333,2.41,6.006,2.869,8.225l-2.142,0.574c-0.459-2.219-1.645-5.7-2.792-8.148
		L499.204,231.599z M522.041,231.867c-0.077,0.344-0.459,0.421-0.803,0.382c-2.984,11.17-8.607,18.018-17.865,21.767
		c-0.306-0.459-0.995-1.339-1.492-1.76c9.143-3.596,14.383-9.869,17.176-21.269L522.041,231.867z M508.499,229.763
		c0.803,2.563,1.53,6.235,1.798,8.684l-2.257,0.421c-0.229-2.448-0.956-5.968-1.798-8.607L508.499,229.763z"/>
	<path fill="#FFFFFF" d="M561.291,228.615c-0.153,0.191-0.345,0.382-0.574,0.536c-4.017,12.394-10.29,20.351-20.848,25.707
		c-0.459-0.65-1.186-1.53-1.951-2.104c10.022-4.858,16.22-12.509,19.395-22.646h-13.656c-2.219,3.443-5.165,6.771-8.569,9.449
		c-0.535-0.536-1.415-1.262-2.18-1.76c5.203-4.017,9.602-9.869,12.203-16.602l3.635,1.033c-0.153,0.383-0.612,0.498-1.109,0.498
		c-0.766,1.683-1.568,3.29-2.448,4.82h13.465l0.459-0.229L561.291,228.615z"/>
	<path fill="#FFFFFF" d="M588.49,243.687c0.918,1.798,2.143,3.366,3.635,4.706c2.486-1.186,5.546-2.946,7.383-4.285l2.295,1.683
		c-0.153,0.191-0.497,0.268-0.842,0.191c-1.874,1.147-4.781,2.64-7.191,3.749c2.754,1.989,6.197,3.328,10.252,4.055
		c-0.535,0.497-1.147,1.454-1.492,2.104c-7.88-1.645-13.465-5.624-16.41-12.012c-1.568,1.224-3.52,2.372-5.624,3.405l0.574,0.115
		c-0.038,0.229-0.268,0.42-0.766,0.459v4.667c2.984-0.306,6.274-0.689,9.487-1.071l0.076,1.989
		c-5.316,0.727-10.94,1.416-14.46,1.836c-0.038,0.306-0.229,0.498-0.497,0.574l-1.147-2.64l4.055-0.421v-4.361
		c-2.64,1.071-5.432,1.951-7.995,2.525c-0.306-0.574-0.956-1.492-1.491-1.951c4.973-0.957,10.749-2.907,14.574-5.317h-13.963v-2.142
		h15.876v-2.869l3.366,0.229c-0.038,0.268-0.268,0.459-0.766,0.536v2.104h16.067v2.142H588.49z M577.588,231.637v-2.181h-8.798
		v-1.951h8.798v-2.563h-4.705c-0.497,0.918-0.994,1.76-1.492,2.448c-0.42-0.268-1.186-0.688-1.759-0.918
		c1.147-1.492,2.18-3.826,2.868-6.083l2.563,0.803c-0.115,0.268-0.383,0.344-0.727,0.306c-0.191,0.497-0.383,1.033-0.612,1.568
		h3.863v-2.831l2.984,0.191c-0.038,0.268-0.229,0.459-0.728,0.536v2.104h7.039v1.875h-7.039v2.563h8.531v1.951h-8.531v2.181h7.269
		v4.82c0,2.143-1.186,2.181-4.591,2.181c-0.114-0.574-0.497-1.262-0.727-1.76h2.065c0.88,0,0.957,0,0.957-0.421v-3.022h-4.974v6.427
		h-2.257v-6.427h-4.705v5.394h-2.104v-7.192H577.588z M593.54,222.227c-0.038,0.229-0.229,0.421-0.727,0.498v12.968h-2.372v-13.695
		L593.54,222.227z M602.645,220.812c-0.038,0.268-0.229,0.459-0.727,0.536v15.416c0,2.601-0.728,2.831-6.925,2.831
		c-0.114-0.65-0.497-1.568-0.841-2.18c1.262,0.038,2.448,0.077,3.328,0.077c1.836,0,2.065,0,2.065-0.727v-16.105L602.645,220.812z"
		/>
	<path fill="#FFFFFF" d="M613.777,244.452c-1.798,1.147-3.673,2.219-5.547,3.137c-0.344-0.612-0.994-1.568-1.492-2.104
		c6.618-3.06,13.236-8.301,16.297-12.815l3.787,0.229c-0.077,0.268-0.383,0.459-0.766,0.498c3.711,4.399,10.559,9.181,16.449,11.629
		c-0.574,0.612-1.224,1.568-1.645,2.295c-1.837-0.88-3.787-1.951-5.7-3.175v11.515h-2.602v-1.186h-16.258v1.377h-2.524V244.452z
		 M610.946,226.511v4.476h-2.486v-6.847h14.575v-3.902l3.404,0.229c-0.038,0.268-0.268,0.459-0.766,0.497v3.175h14.805v6.847h-2.602
		v-4.476H610.946z M620.969,229.725c-0.152,0.229-0.421,0.344-0.841,0.344c-2.487,2.945-6.351,6.006-9.832,7.918
		c-0.382-0.497-1.186-1.454-1.683-1.875c3.328-1.721,7.115-4.59,9.41-7.536L620.969,229.725z M633.248,242.884
		c-3.48-2.41-6.732-5.126-8.836-7.689c-1.875,2.448-4.858,5.203-8.34,7.689H633.248z M616.302,252.141h16.258v-6.924h-16.258
		V252.141z M638.145,237.911c-2.104-2.257-6.503-5.585-10.137-7.842l1.722-1.53c3.634,2.142,8.109,5.355,10.328,7.613
		L638.145,237.911z"/>
	<path fill="#FFFFFF" d="M680.072,238.025h-11.17c3.021,2.792,7.688,5.088,12.241,6.197c-0.574,0.536-1.263,1.454-1.646,2.104
		c-0.918-0.268-1.798-0.536-2.716-0.88v10.329h-2.371v-1.377h-7.536v1.53h-2.296v-12.624h7.689c-2.563-1.454-4.858-3.29-6.58-5.279
		h-5.967c-1.837,2.028-4.094,3.787-6.733,5.279h7.804v12.471h-2.409v-1.377h-7.384v1.53h-2.295V245.37
		c-0.842,0.344-1.684,0.689-2.563,0.995c-0.307-0.535-1.109-1.492-1.607-1.913c4.667-1.568,8.684-3.71,11.706-6.427h-10.864v-2.333
		h13.083c0.803-0.956,1.453-1.989,2.027-3.06h-12.317v-10.596h12.432v10.367l0.345-0.765l3.061,0.88
		c-0.077,0.229-0.383,0.382-0.88,0.421c-0.459,0.956-0.956,1.874-1.568,2.754h18.515V238.025z M658.114,230.49v-6.312h-7.574v6.312
		H658.114z M658.383,252.141v-6.58h-7.384v6.58H658.383z M677.471,222.036v10.596h-12.509v-10.596H677.471z M666.875,252.141h7.536
		v-6.58h-7.536V252.141z M674.984,230.49v-6.312h-7.65v6.312H674.984z"/>
	<path fill="#FFFFFF" d="M691.205,250.917c0,1.607,0.804,1.989,5.012,1.989h15.11c3.557,0,4.131-0.841,4.476-5.355
		c0.688,0.382,1.76,0.803,2.486,0.918c-0.536,5.547-1.606,6.886-6.962,6.886h-14.92c-5.967,0-7.727-0.803-7.727-4.399v-10.099
		h13.542v-6.962h-13.121v-1.836c-1.301,1.76-2.678,3.328-4.094,4.667c-0.459-0.498-1.415-1.301-2.065-1.722
		c3.863-3.366,7.612-9.143,9.831-14.957l3.214,1.071c-0.077,0.268-0.421,0.421-0.842,0.383c-0.459,1.109-0.995,2.257-1.568,3.366
		h20.848l1.454,0.077c-0.306,2.104-0.076,18.132-2.027,20.466c-0.804,1.071-1.646,1.3-4.323,1.3c-0.994,0-2.18-0.038-3.404-0.115
		c-0.038-0.765-0.306-1.798-0.727-2.448c2.104,0.153,4.017,0.191,4.743,0.191c0.688,0,1.109-0.077,1.416-0.497
		c0.88-1.033,1.262-5.088,1.606-16.488H692.2c-0.842,1.454-1.722,2.869-2.678,4.17h15.301v11.667h-13.618V250.917z"/>
	<path fill="#FFFFFF" d="M741.51,243.113c1.033,1.836,2.372,3.52,3.979,4.935c2.334-1.109,5.241-2.831,6.962-4.131l2.296,1.683
		c-0.153,0.191-0.459,0.268-0.804,0.191c-1.76,1.033-4.552,2.525-6.848,3.596c2.793,2.066,6.197,3.596,10.022,4.438
		c-0.535,0.536-1.186,1.492-1.491,2.143c-7.574-1.989-13.428-6.465-16.641-12.854h-0.076c-1.568,1.416-3.558,2.754-5.738,3.94
		l0.803,0.153c-0.038,0.268-0.268,0.459-0.765,0.536v4.59l9.907-1.224l0.077,1.989c-5.853,0.841-12.127,1.721-16.028,2.219
		c0,0.306-0.229,0.459-0.497,0.536l-0.995-2.64c1.454-0.153,3.175-0.344,5.05-0.574v-4.361c-2.602,1.224-5.355,2.18-7.881,2.831
		c-0.344-0.612-0.994-1.492-1.491-1.951c4.896-1.109,10.558-3.366,14.269-6.044h-13.733v-2.104h15.952v-3.404l3.328,0.229
		c-0.038,0.268-0.229,0.459-0.728,0.535v2.64h16.144v2.104H741.51z M721.465,234.124c2.027-0.688,4.858-1.798,7.804-2.945
		l0.459,1.989c-2.486,1.033-4.973,2.065-6.617,2.716c0,0.306-0.153,0.498-0.383,0.612L721.465,234.124z M724.22,222.647
		c1.721,1.109,3.825,2.754,4.781,4.017l-1.568,1.568c-0.956-1.224-3.022-2.983-4.743-4.169L724.22,222.647z M733.592,220.467
		c-0.038,0.229-0.229,0.42-0.766,0.497v17.482h-2.41v-18.208L733.592,220.467z M744.341,234.774v-6.656h-9.602v-2.104h9.602v-5.776
		l3.328,0.229c-0.038,0.268-0.268,0.459-0.766,0.535v5.011h9.793v2.104h-9.793v6.656h8.569v2.104h-19.51v-2.104H744.341z"/>
</g>
</svg>
