<?xml version="1.0" encoding="utf-8"?>
<!-- Generator: Adobe Illustrator 15.1.0, SVG Export Plug-In . SVG Version: 6.00 Build 0)  -->
<!DOCTYPE svg PUBLIC "-//W3C//DTD SVG 1.1//EN" "http://www.w3.org/Graphics/SVG/1.1/DTD/svg11.dtd">
<svg version="1.1" id="繝ｬ繧､繝､繝ｼ_1" xmlns="http://www.w3.org/2000/svg" xmlns:xlink="http://www.w3.org/1999/xlink" x="0px"
	 y="0px" width="298.21px" height="86.173px" viewBox="0 0 298.21 86.173" enable-background="new 0 0 298.21 86.173"
	 xml:space="preserve">
<g>
	<path d="M111.272,31.921l1.032,0.624c-0.024,0.072-0.12,0.168-0.192,0.216c-0.624,1.824-1.56,4.249-2.376,6.241
		c1.849,1.968,2.497,3.648,2.497,5.184c0,3.457-2.112,3.36-3.984,3.289c-0.024-0.408-0.192-1.032-0.408-1.416
		c0.36,0.048,0.72,0.072,1.032,0.072c0.936,0,1.872,0,1.872-2.04c-0.024-1.344-0.672-2.977-2.52-4.896
		c0.768-1.824,1.512-4.057,2.04-5.736h-3.432v19.801h-1.464V31.993h5.641L111.272,31.921z M125.146,34.369l0.768,0.024v0.552
		c-0.12,12.481-0.24,16.273-0.96,17.33c-0.648,0.936-1.32,0.96-2.592,0.96c-0.648,0-1.44-0.024-2.208-0.072
		c-0.024-0.432-0.192-1.032-0.432-1.416c1.32,0.096,2.521,0.12,3,0.12c0.384,0,0.624-0.072,0.864-0.408
		c0.552-0.768,0.72-4.608,0.84-15.673h-9.457c-0.816,1.56-1.776,2.976-2.76,4.032c-0.264-0.264-0.816-0.72-1.176-0.936
		c1.752-1.8,3.336-4.873,4.272-7.969l1.896,0.552c-0.072,0.144-0.24,0.216-0.504,0.216c-0.288,0.888-0.648,1.8-1.056,2.688H125.146z
		 M120.945,49.226h-5.976v1.584h-1.272v-6.073l1.704,0.12c-0.024,0.144-0.144,0.264-0.432,0.288v2.808h2.28v-4.176h-4.296V42.53
		h4.296v-2.736h-1.488c-0.336,0.768-0.768,1.56-1.296,2.304c-0.264-0.312-0.72-0.696-1.056-0.84c1.032-1.416,1.704-3.24,2.088-4.656
		l1.68,0.216c-0.024,0.168-0.168,0.264-0.432,0.288c-0.12,0.432-0.288,0.936-0.48,1.44h5.953v1.248h-3.648v2.736h4.296v1.248h-4.296
		v4.176h2.376v-3.216l1.705,0.12c-0.024,0.144-0.144,0.264-0.432,0.288v5.28h-1.272V49.226z"/>
	<path d="M135.992,49.946h-4.44v1.92h-1.368v-8.112c-0.36,0.792-0.744,1.512-1.176,2.16c-0.192-0.36-0.6-1.008-0.864-1.32
		c1.56-2.424,2.544-6.577,3.145-10.921h-2.904v-1.488h8.424v1.488h-4.032c-0.288,1.992-0.672,3.96-1.152,5.809h4.368V49.946z
		 M134.6,48.506v-7.584h-3.048v7.584H134.6z M149.001,46.682c0.888,1.8,1.704,4.152,1.992,5.712l-1.296,0.528
		c-0.072-0.456-0.192-0.96-0.336-1.512c-1.968,0.36-3.888,0.696-5.185,0.888c-0.024,0.168-0.144,0.312-0.312,0.336l-0.48-1.368
		h-0.024c0.072,0.408,0.144,0.792,0.192,1.128l-1.296,0.48c-0.048-0.432-0.144-0.96-0.24-1.488c-2.04,0.36-4.008,0.672-5.328,0.888
		c-0.048,0.168-0.168,0.288-0.312,0.312L135.8,50.93l1.008-0.12c0.816-1.249,1.705-2.856,2.544-4.513
		c-0.744-1.128-1.968-2.592-3.072-3.648l0.672-1.104c0.168,0.168,0.36,0.336,0.552,0.504c0.72-1.56,1.488-3.648,1.896-5.16
		l1.776,0.528c-0.072,0.144-0.24,0.24-0.504,0.24c-0.576,1.56-1.488,3.768-2.304,5.304c0.648,0.672,1.224,1.368,1.632,1.992
		c0.768-1.608,1.464-3.192,1.968-4.536l1.68,0.576c-0.048,0.168-0.264,0.264-0.528,0.264c-1.224,2.76-3.145,6.649-4.825,9.385
		c1.056-0.144,2.232-0.288,3.433-0.432c-0.264-1.008-0.576-2.017-0.912-2.904l1.176-0.456c0.528,1.272,1.008,2.808,1.296,4.128
		l0.288-0.048c0.84-1.248,1.752-2.88,2.64-4.608c-0.744-1.104-1.92-2.52-2.977-3.552l0.672-1.08c0.168,0.144,0.336,0.288,0.48,0.456
		c0.744-1.584,1.512-3.72,1.968-5.256l1.752,0.528c-0.048,0.144-0.24,0.24-0.504,0.24c-0.552,1.584-1.512,3.84-2.328,5.376
		c0.6,0.648,1.176,1.344,1.584,1.968c0.768-1.56,1.464-3.121,1.968-4.44l1.752,0.6c-0.072,0.168-0.264,0.24-0.552,0.264
		c-1.249,2.736-3.216,6.625-4.92,9.337l3.888-0.552c-0.336-1.032-0.744-2.112-1.176-3.024L149.001,46.682z M136.28,35.185h3.913
		c-0.313-1.08-1.056-2.568-1.8-3.696l1.32-0.504c0.84,1.2,1.632,2.76,1.944,3.816l-0.936,0.384h5.112l-0.576-0.24
		c0.625-1.08,1.417-2.832,1.848-4.032l1.896,0.672c-0.072,0.144-0.24,0.216-0.504,0.216c-0.432,0.984-1.2,2.376-1.824,3.384h4.128
		v1.488H136.28V35.185z"/>
	<path d="M174.417,42.074h-7.009c1.896,1.752,4.825,3.192,7.681,3.888c-0.36,0.336-0.792,0.912-1.032,1.32
		c-0.576-0.168-1.128-0.336-1.704-0.552v6.48h-1.488v-0.864h-4.729v0.96h-1.44v-7.921h4.824c-1.608-0.912-3.048-2.064-4.128-3.312
		h-3.744c-1.152,1.272-2.568,2.376-4.225,3.312h4.896v7.825h-1.512v-0.864h-4.632v0.96h-1.44v-6.625
		c-0.528,0.216-1.056,0.432-1.608,0.624c-0.192-0.336-0.696-0.936-1.008-1.2c2.928-0.984,5.448-2.328,7.345-4.032h-6.817v-1.464
		h8.209c0.504-0.6,0.912-1.248,1.272-1.92H154.4v-6.649h7.801v6.505l0.216-0.48l1.92,0.552c-0.048,0.144-0.24,0.24-0.552,0.264
		c-0.288,0.6-0.6,1.176-0.984,1.728h11.617V42.074z M160.64,37.345v-3.96h-4.752v3.96H160.64z M160.808,50.93v-4.128h-4.632v4.128
		H160.808z M172.785,32.041v6.649h-7.849v-6.649H172.785z M166.137,50.93h4.729v-4.128h-4.729V50.93z M171.225,37.345v-3.96h-4.8
		v3.96H171.225z"/>
	<path d="M181.064,41.954v-3.792c-1.08,1.536-2.496,2.977-3.816,3.769c-0.216-0.312-0.648-0.816-0.96-1.08
		c1.512-0.792,3.168-2.4,4.225-4.008h-3.865v-1.344h4.417V30.96l1.896,0.12c-0.024,0.144-0.144,0.264-0.456,0.312v4.104h4.369v1.344
		h-4.369v0.336c0.984,0.576,3.816,2.424,4.489,2.952l-0.888,1.176c-0.672-0.6-2.376-1.92-3.601-2.784v3.432H181.064z M182.456,46.13
		c-0.024,0.384-0.096,0.792-0.168,1.176c1.488,1.032,3.288,2.424,4.272,3.288l-1.08,1.104c-0.792-0.792-2.28-1.992-3.648-3
		c-0.696,1.488-2.04,2.928-4.632,4.104c-0.192-0.36-0.6-0.936-0.888-1.224c3.528-1.584,4.44-3.576,4.656-5.448h-4.344v-1.44h4.393
		v-2.208l1.944,0.12c-0.024,0.168-0.144,0.288-0.456,0.336v1.752h4.465v1.44H182.456z M178.352,31.705
		c0.648,0.84,1.249,2.016,1.464,2.784l-1.224,0.528c-0.216-0.792-0.792-1.992-1.416-2.88L178.352,31.705z M183.704,34.585
		c0.504-0.816,1.128-2.112,1.44-2.977l1.656,0.625c-0.072,0.144-0.24,0.192-0.48,0.192c-0.384,0.768-1.008,1.896-1.536,2.64
		L183.704,34.585z M191.697,49.994c-0.072,0.096-0.216,0.168-0.432,0.192c-0.96,1.056-3.024,2.353-4.825,3.072
		c-0.24-0.312-0.72-0.816-1.08-1.08c1.8-0.696,3.816-1.944,4.776-3L191.697,49.994z M187.88,36.025h3.265
		c0.216-0.768,0.432-1.68,0.6-2.472h-4.705v-1.44h11.641v1.44h-5.281c-0.168,0.72-0.432,1.656-0.72,2.472h5.136V48.65h-9.937V36.025
		z M196.281,39.817v-2.496h-6.913v2.496H196.281z M196.281,43.562v-2.496h-6.913v2.496H196.281z M196.281,47.354V44.81h-6.913v2.544
		H196.281z M194.937,49.274c1.417,0.864,3.24,2.184,4.201,3.096c-0.144,0.096-0.288,0.192-1.272,0.888
		c-0.864-0.888-2.688-2.232-4.128-3.168L194.937,49.274z"/>
</g>
</svg>
